<?xml version="1.0" encoding="UTF-8"?>
<svg width="50px" height="35px" viewBox="0 0 50 35" version="1.1" xmlns="http://www.w3.org/2000/svg" xmlns:xlink="http://www.w3.org/1999/xlink">
    <!-- Generator: Sketch 52 (66869) - http://www.bohemiancoding.com/sketch -->
    <title>Heart_Sensor-Muse-HarleyOliver</title>
    <desc>Created with Sketch.</desc>
    <g id="Heart_Sensor-Muse-HarleyOliver" stroke="none" stroke-width="1" fill="none" fill-rule="evenodd">
        <g id="Group" transform="translate(24.000000, 9.000000)" fill="#50555E" fill-rule="nonzero">
            <g id="Sensor-(noun)">
                <path d="M17.8685771,0 C13.9598749,0 10.6616179,2.93024359 9.87953325,6.78677235 L11.0976647,6.78677235 C11.8471477,3.58256828 14.5823433,1.19182344 17.8685771,1.19182344 C21.733338,1.19182344 24.8293282,4.49753908 24.8293282,8.5413907 C24.8293282,12.5852741 21.733338,15.8247562 17.8685771,15.8247562 C14.616818,15.8247562 11.912351,13.5321646 11.1293045,10.3953383 L9.89535314,10.3953383 C10.7138868,14.186714 13.993894,17 17.8685771,17 C22.3540851,17 26,13.2347384 26,8.5413907 C26,3.84807476 22.3540851,0 17.8685771,0 Z M17.7261981,3.24440824 C15.518096,3.24440824 13.638997,4.71707825 12.9485917,6.78677235 L14.2141828,6.78677235 C14.8324494,5.38497611 16.1529165,4.41967858 17.7261981,4.41967858 C19.8899539,4.41967858 21.6337107,6.26082861 21.6337107,8.52481112 C21.6337107,10.7889049 19.8899539,12.5968745 17.7261981,12.5968745 C16.2130574,12.5968745 14.92504,11.7040134 14.2774624,10.3953383 L12.9960514,10.3953383 C13.7268037,12.3790092 15.5724152,13.7721713 17.7261981,13.7721713 C20.5107011,13.7721713 22.8043824,11.4384221 22.8043824,8.52481112 C22.8043824,5.61125835 20.5107011,3.24440824 17.7261981,3.24440824 Z M7.61728914,4.50244409 C7.5959209,4.50668169 7.57478047,4.51219056 7.55400959,4.51897071 C7.53819982,4.51844101 7.52235968,4.51844101 7.50654992,4.51897071 C7.33277059,4.5619823 7.18153802,4.69490504 7.1110527,4.86658588 L5.5448837,8.34270049 L4.32675226,11.0408298 L3.56739759,8.42543953 C3.49739927,8.17801698 3.26031811,7.99373459 3.01370148,7.99505884 L0.577438599,7.99505884 C0.275092427,7.99505884 0,8.28295041 0,8.59928684 C0,8.91562326 0.275092427,9.20346187 0.577438599,9.20346187 L2.58656448,9.20346187 L3.67813682,12.8782508 C3.81075456,13.3322031 4.53047649,13.3996868 4.73806937,12.9775694 L6.60481626,8.83929359 L7.60146925,6.62121483 L8.43992336,8.822714 C8.52225108,9.04163873 8.73721527,9.19842972 8.9619797,9.20346187 L9.73715425,9.20346187 L10.9394658,9.20346187 L12.6954735,9.20346187 L13.8819651,9.20346187 L15.9385507,9.20346187 C16.2202206,10.0696262 16.9997995,10.6932412 17.9160368,10.6932412 C19.0593718,10.6932412 20.0042621,9.72108403 20.0042621,8.52475815 C20.0042621,7.3285382 19.0593718,6.33981208 17.9160368,6.33981208 C16.9488214,6.33981208 16.1261872,7.05439763 15.891091,7.99505884 L13.8819651,7.99505884 L12.6796536,7.99505884 L10.907826,7.99505884 L9.73715425,7.99505884 L9.35747692,7.99505884 L8.15516536,4.88313899 C8.07085928,4.65916623 7.84734121,4.50095564 7.61728914,4.50241761 L7.61728914,4.50244409 Z" id="Shape"></path>
            </g>
        </g>
        <g id="Group" transform="translate(0.000000, 5.000000)">
            <path d="M12.2657578,24.5206416 C10.6113572,24.5206416 9.00642222,24.1966394 7.49560133,23.557578 C6.03629786,22.9403726 4.72570356,22.0567484 3.60023745,20.9312823 C2.47474904,19.8057939 1.59112489,18.4951996 0.973897108,17.0359184 C0.334880355,15.5250752 0.0108558402,13.9201626 0.0108558402,12.2657396 C0.0108558402,10.611339 0.334880355,9.00640406 0.973897108,7.49558317 C1.59112489,6.03627971 2.47474904,4.72568541 3.60023745,3.6002193 C4.72570356,2.47473088 6.03629786,1.59110673 7.49560133,0.973878951 C9.00642222,0.334862198 10.6113572,0.010837684 12.2657578,0.010837684 C13.9201807,0.010837684 15.5250934,0.334862198 17.0359366,0.973878951 C18.4952177,1.59110673 19.805812,2.47473088 20.9313005,3.6002193 C22.0567666,4.72568541 22.9403907,6.03627971 23.5575962,7.49558317 C24.1966575,9.00640406 24.5206598,10.611339 24.5206598,12.2657396 C24.5206598,13.9201626 24.1966575,15.5250752 23.5575962,17.0359184 C22.9403907,18.4951996 22.0567666,19.8057939 20.9313005,20.9312823 C19.805812,22.0567484 18.4952177,22.9403726 17.0359366,23.557578 C15.5250934,24.1966394 13.9201807,24.5206416 12.2657578,24.5206416" id="Fill-1" fill="#EF5069"></path>
            <path d="M12.2663953,8.44128028 C12.2476329,8.42808053 12.2430272,8.42659937 12.241499,8.42352814 C12.1901571,8.32045685 12.1433147,8.21477175 12.0874095,8.11437961 C11.4182664,6.9131155 10.452257,6.13134632 9.09486879,5.93226103 C7.72907569,5.73193417 6.54027325,6.13696602 5.5394345,7.10608012 C4.7685414,7.8524975 4.29506646,8.77830946 4.04969064,9.82897448 C3.93147048,10.3352044 3.88127467,10.8501034 3.95859532,11.369642 C4.04506372,11.9506487 4.26603142,12.4823197 4.54411411,12.9905971 C5.10359051,14.0132943 5.82955146,14.905998 6.61827309,15.7459245 C8.30759041,17.5449454 10.1964812,19.1025156 12.1717767,20.5546402 C12.2443219,20.607962 12.2872589,20.5924969 12.3482155,20.5453612 C13.0313668,20.0171971 13.7265523,19.5048029 14.3980725,18.961544 C15.8675683,17.7726738 17.2693368,16.5064564 18.5052787,15.0577951 C19.1667174,14.2824733 19.770659,13.4658533 20.1988622,12.5267109 C20.4423914,11.9926221 20.6032727,11.4352487 20.5871209,10.8381235 C20.5586802,9.78706637 20.2479543,8.82335415 19.6705857,7.96197263 C18.6824604,6.48782662 17.3337318,5.7412132 15.5622546,5.91298417 C14.5525228,6.0108714 13.717638,6.47573774 13.0345717,7.23552912 C12.7153135,7.59061539 12.4616177,7.99240175 12.2663953,8.44128028" id="Fill-5" fill="#FFFFFF"></path>
        </g>
    </g>
</svg>