<?xml version="1.0" standalone="no"?>
<!DOCTYPE svg PUBLIC "-//W3C//DTD SVG 20010904//EN"
 "http://www.w3.org/TR/2001/REC-SVG-20010904/DTD/svg10.dtd">
<svg version="1.0" xmlns="http://www.w3.org/2000/svg"
 width="418.000000pt" height="418.000000pt" viewBox="0 0 418.000000 418.000000"
 preserveAspectRatio="xMidYMid meet">

<g transform="translate(0.000000,418.000000) scale(0.100000,-0.100000)"
fill="#000000" stroke="none">
<path d="M0 2095 l0 -2085 2085 0 2085 0 0 2085 0 2085 -2085 0 -2085 0 0
-2085z m3028 1391 c3 -13 -30 -53 -109 -132 -114 -114 -149 -135 -163 -97 -5
12 24 48 111 135 119 119 153 139 161 94z m-705 -61 c300 -87 537 -323 616
-615 26 -94 44 -250 36 -309 -28 -213 -85 -356 -193 -489 -42 -51 -43 -55 -31
-89 17 -54 7 -145 -22 -187 -71 -106 -215 -129 -307 -50 l-41 35 -58 -18 c-47
-15 -93 -18 -238 -18 -178 0 -181 1 -277 34 -237 81 -416 237 -523 454 -69
140 -88 225 -89 392 -1 152 16 238 69 359 122 276 387 479 688 527 95 15 273
3 370 -26z m-909 -1547 c9 -15 -7 -36 -109 -138 -121 -121 -155 -141 -163 -96
-5 22 225 258 247 254 8 -2 19 -11 25 -20z m1 -638 c3 -5 17 -10 31 -10 15 0
24 -6 24 -15 0 -9 -9 -15 -25 -15 -14 0 -25 -4 -25 -10 0 -5 12 -10 26 -10 18
0 25 -5 23 -17 -3 -35 1 -156 6 -152 2 3 5 42 6 87 1 79 2 82 25 82 13 0 24 5
24 10 0 6 -11 10 -25 10 -29 0 -34 18 -7 26 9 3 27 11 40 17 17 8 28 8 42 -1
11 -7 27 -12 35 -12 8 0 15 -7 15 -15 0 -8 -9 -15 -20 -15 -11 0 -20 -4 -20
-10 0 -5 11 -10 25 -10 16 0 25 -6 25 -15 0 -8 -4 -15 -8 -15 -4 0 -5 -26 -1
-57 12 -93 11 -113 -6 -113 -12 0 -15 15 -17 68 l-2 67 -3 -67 c-3 -60 -6 -68
-23 -68 -18 0 -20 8 -22 88 l-2 87 -3 -87 c-3 -80 -6 -88 -23 -88 -17 0 -20 8
-22 53 l-2 52 -3 -52 -4 -52 -54 0 -55 0 -2 42 -1 42 -4 -42 c-4 -41 -5 -42
-40 -41 l-35 1 5 91 c4 50 7 94 7 99 0 4 11 7 25 7 14 0 25 5 25 10 0 6 -11
10 -25 10 -16 0 -25 6 -25 15 0 9 9 15 24 15 14 0 28 5 31 10 3 6 12 10 20 10
8 0 17 -4 20 -10z m385 0 c0 -6 28 -10 64 -10 36 0 68 5 71 10 15 24 95 -3 95
-32 0 -16 -14 -18 -165 -18 -144 0 -165 2 -165 16 0 9 9 18 20 21 11 3 20 9
20 14 0 5 14 9 30 9 17 0 30 -4 30 -10z m620 -10 c24 -24 25 -36 6 -47 -8 -5
-16 -27 -18 -53 l-3 -45 -137 -3 -138 -3 0 33 c0 18 -3 57 -6 86 l-7 52 142 0
c128 0 143 -2 161 -20z m205 11 c3 -6 49 -7 110 -4 l105 6 0 -76 c0 -89 2 -88
-118 -86 l-82 2 0 54 c0 46 3 53 19 53 16 0 21 -8 24 -42 3 -43 4 -42 5 8 l2
51 -30 -5 c-29 -4 -30 -5 -30 -63 0 -56 -1 -59 -25 -59 -24 0 -25 3 -25 60 0
56 -2 60 -22 59 -17 -1 -19 -2 -5 -6 18 -5 20 -17 11 -75 -5 -28 -11 -38 -25
-38 -17 0 -19 8 -17 75 2 75 2 75 30 75 15 0 28 5 28 10 0 13 37 13 45 1z
m-805 -66 c0 -3 -7 -17 -16 -30 -16 -24 -16 -25 10 -25 30 0 31 -5 11 -40 -19
-33 -18 -40 4 -40 12 0 23 -10 28 -27 l9 -26 26 44 26 44 -24 3 c-30 4 -30 5
4 58 21 35 33 44 55 44 31 0 33 -7 11 -38 -15 -21 -14 -22 15 -22 l31 0 -20
-32 c-25 -41 -25 -46 2 -50 14 -2 24 -13 29 -30 l7 -28 -159 0 c-87 0 -159 3
-159 7 0 3 11 26 25 50 l26 43 -26 0 c-31 0 -31 3 3 56 21 35 33 44 55 44 15
0 27 -2 27 -5z m567 -115 c46 0 54 -3 51 -17 -2 -10 -14 -19 -26 -21 -23 -3
-23 -4 -6 -23 17 -18 16 -19 -18 -19 -22 0 -41 7 -52 19 -17 19 -17 20 16 23
18 2 -28 3 -102 3 -119 0 -135 2 -138 17 -3 14 7 18 65 21 37 2 88 2 112 1 24
-2 68 -4 98 -4z m265 -22 c3 -33 4 -33 61 -36 86 -4 59 -22 -34 -22 l-79 0 0
45 c0 41 2 45 24 45 21 0 25 -6 28 -32z m86 0 c3 -24 0 -28 -22 -28 -14 0 -26
3 -26 8 0 4 -3 17 -7 30 -5 21 -3 23 23 20 23 -2 30 -9 32 -30z m-156 -18 c-4
-37 -7 -40 -33 -40 -31 0 -32 2 -23 49 5 25 11 31 33 31 25 0 26 -2 23 -40z
m248 31 c0 -5 3 -23 6 -40 6 -28 4 -31 -20 -31 -27 0 -30 3 -40 53 -6 25 -4
27 24 27 16 0 30 -4 30 -9z m-615 -51 c-12 -13 -31 -20 -53 -20 -34 0 -35 0
-17 20 12 13 31 20 53 20 34 0 35 0 17 -20z m-565 -150 c0 -27 3 -30 30 -30
27 0 30 3 30 30 0 20 5 30 15 30 12 0 15 -15 15 -75 0 -60 -3 -75 -15 -75 -10
0 -15 10 -15 31 0 27 -3 30 -27 27 -22 -2 -29 -9 -31 -30 -2 -16 -9 -28 -18
-28 -11 0 -14 17 -14 75 0 60 3 75 15 75 10 0 15 -10 15 -30z m647 13 c4 -10
14 -23 22 -30 14 -10 14 -12 -1 -18 -11 -5 -18 -18 -18 -35 0 -19 6 -30 18
-33 16 -4 16 -4 0 -12 -31 -13 -48 2 -48 40 0 19 -4 35 -10 35 -5 0 -10 7 -10
15 0 8 5 15 10 15 6 0 10 9 10 20 0 25 18 26 27 3z m253 1 c0 -9 -17 -35 -37
-58 l-38 -41 38 -3 c24 -2 37 -8 37 -18 0 -11 -14 -14 -60 -14 -74 0 -78 14
-19 74 l42 41 -42 3 c-28 2 -41 8 -41 18 0 11 14 14 60 14 49 0 60 -3 60 -16z
m-600 -39 c0 -10 -10 -15 -31 -15 -17 0 -28 -4 -24 -10 3 -5 17 -10 31 -10 36
0 29 -18 -8 -23 l-33 -3 33 -8 c44 -11 41 -28 -5 -24 -28 2 -41 10 -52 29 -13
24 -13 29 2 53 13 20 26 26 52 26 24 0 35 -5 35 -15z m188 3 c17 -17 15 -38
-3 -38 -8 0 -15 5 -15 10 0 6 -7 10 -15 10 -11 0 -15 -11 -15 -40 0 -29 -4
-40 -15 -40 -11 0 -15 12 -15 48 0 27 3 52 7 55 11 11 58 8 71 -5z m-618 -43
c0 -16 -45 -21 -54 -6 -8 12 4 21 31 21 14 0 23 -6 23 -15z m1181 0 c0 -5 -12
-11 -26 -13 -18 -2 -25 1 -25 13 0 12 7 15 25 13 14 -2 26 -7 26 -13z"/>
<path d="M2000 3389 c-234 -20 -473 -164 -603 -362 -99 -151 -141 -288 -140
-457 3 -411 288 -751 688 -821 86 -15 282 -6 351 15 l51 16 -5 50 c-16 167
162 285 311 205 l46 -24 34 42 c182 224 230 550 121 818 -142 348 -476 551
-854 518z m234 -275 c91 -23 172 -69 242 -137 55 -53 70 -62 104 -64 131 -6
190 -178 91 -267 -18 -16 -21 -31 -21 -95 -1 -96 -12 -144 -55 -234 -64 -135
-179 -236 -328 -289 -66 -24 -94 -28 -182 -28 -88 0 -116 4 -182 28 -148 52
-264 153 -327 285 -46 94 -56 141 -55 262 0 162 56 293 174 404 149 139 338
186 539 135z"/>
<path d="M1950 3052 c-169 -44 -319 -200 -359 -372 -38 -166 15 -347 138 -470
122 -121 290 -173 453 -139 89 18 196 76 258 138 92 92 156 244 148 352 -3 41
-5 43 -38 47 -55 5 -105 44 -125 96 -21 55 -15 99 22 152 l26 39 -51 45 c-127
114 -304 156 -472 112z m235 -219 c97 -33 185 -157 185 -262 0 -102 -67 -208
-162 -255 -111 -55 -252 -26 -336 69 -42 48 -72 125 -72 186 0 103 87 229 181
262 59 21 144 21 204 0z"/>
<path d="M2018 2774 c-54 -16 -113 -70 -134 -120 -20 -49 -18 -137 5 -183 22
-42 80 -97 118 -112 38 -14 131 -11 167 6 44 21 101 83 115 124 34 104 -11
221 -105 270 -54 28 -110 33 -166 15z"/>
<path d="M2534 2850 c-76 -30 -67 -155 12 -174 52 -13 114 35 114 89 0 32 -30
73 -61 84 -37 13 -37 13 -65 1z"/>
<path d="M2469 1967 c-21 -14 -41 -41 -53 -69 -17 -41 -18 -53 -8 -87 15 -49
66 -99 109 -107 155 -29 245 152 128 255 -30 26 -44 31 -89 31 -39 0 -62 -6
-87 -23z"/>
<path d="M1431 1064 c0 -11 3 -14 6 -6 3 7 2 16 -1 19 -3 4 -6 -2 -5 -13z"/>
<path d="M2170 1200 c0 -6 42 -10 105 -10 63 0 105 4 105 10 0 6 -42 10 -105
10 -63 0 -105 -4 -105 -10z"/>
<path d="M2233 1113 c26 -2 67 -2 90 0 23 2 2 3 -48 3 -49 0 -68 -1 -42 -3z"/>
<path d="M2753 1203 c9 -2 23 -2 30 0 6 3 -1 5 -18 5 -16 0 -22 -2 -12 -5z"/>
<path d="M2740 1166 c0 -2 11 -6 25 -8 14 -3 25 -1 25 3 0 5 -11 9 -25 9 -14
0 -25 -2 -25 -4z"/>
<path d="M2760 1120 l-25 -8 28 -1 c15 -1 27 4 27 9 0 6 -1 10 -2 9 -2 -1 -14
-5 -28 -9z"/>
</g>
</svg>
